HIERARCHY
ROOT Hips
{
 OFFSET 0.000000 0.000000 0.000000
 CHANNELS 6 Xposition Yposition Zposition Yrotation Xrotation Zrotation
 JOINT Chest
 {
  OFFSET 0.000000 9.303000 0.001900
  CHANNELS 3 Yrotation Xrotation Zrotation
  JOINT Chest2
  {
   OFFSET 0.000000 9.301100 -0.003900
   CHANNELS 3 Yrotation Xrotation Zrotation
   JOINT Chest3
   {
    OFFSET 0.000000 9.262800 0.000000
    CHANNELS 3 Yrotation Xrotation Zrotation
    JOINT Chest4
    {
     OFFSET 0.000000 9.253300 0.000000
     CHANNELS 3 Yrotation Xrotation Zrotation
     JOINT Neck
     {
      OFFSET 0.000000 14.010300 0.000000
      CHANNELS 3 Yrotation Xrotation Zrotation
      JOINT Head
      {
       OFFSET 0.000000 8.657600 -0.008300
       CHANNELS 3 Yrotation Xrotation Zrotation
       End Site
       {
        OFFSET 0.000000 16.540200 -0.004400
       }
      }
     }
     JOINT RightCollar
     {
      OFFSET -2.834100 9.267700 0.000000
      CHANNELS 3 Yrotation Xrotation Zrotation
      JOINT RightShoulder
      {
       OFFSET -13.135200 0.000000 0.000000
       CHANNELS 3 Yrotation Xrotation Zrotation
       JOINT RightElbow
       {
        OFFSET 0.000000 -28.893500 0.000000
        CHANNELS 3 Yrotation Xrotation Zrotation
        JOINT RightWrist
        {
         OFFSET 0.000000 -23.344000 0.000000
         CHANNELS 3 Yrotation Xrotation Zrotation
         End Site
         {
          OFFSET 0.000000 -17.223000 0.000000
         }
        }
       }
      }
     }
     JOINT LeftCollar
     {
      OFFSET 2.834100 9.267700 0.000000
      CHANNELS 3 Yrotation Xrotation Zrotation
      JOINT LeftShoulder
      {
       OFFSET 13.135200 0.000000 0.000000
       CHANNELS 3 Yrotation Xrotation Zrotation
       JOINT LeftElbow
       {
        OFFSET 0.000000 -28.893500 0.000000
        CHANNELS 3 Yrotation Xrotation Zrotation
        JOINT LeftWrist
        {
         OFFSET 0.000000 -23.344000 0.000000
         CHANNELS 3 Yrotation Xrotation Zrotation
         End Site
         {
          OFFSET 0.000000 -17.223000 0.000000
         }
        }
       }
      }
     }
    }
   }
  }
 }
 JOINT RightHip
 {
  OFFSET -7.547200 -0.009500 -0.001000
  CHANNELS 3 Yrotation Xrotation Zrotation
  JOINT RightKnee
  {
   OFFSET 0.000000 -39.762800 0.000900
   CHANNELS 3 Yrotation Xrotation Zrotation
   JOINT RightAnkle
   {
    OFFSET 0.000000 -38.588200 0.001600
    CHANNELS 3 Yrotation Xrotation Zrotation
    JOINT RightToe
    {
     OFFSET 0.000000 -4.693300 10.419700
     CHANNELS 3 Yrotation Xrotation Zrotation
     End Site
     {
      OFFSET 0.000000 -1.379900 5.669300
     }
    }
   }
  }
 }
 JOINT LeftHip
 {
  OFFSET 7.547200 -0.009500 -0.001000
  CHANNELS 3 Yrotation Xrotation Zrotation
  JOINT LeftKnee
  {
   OFFSET 0.000000 -39.762800 0.000900
   CHANNELS 3 Yrotation Xrotation Zrotation
   JOINT LeftAnkle
   {
    OFFSET 0.000000 -38.588200 0.001600
    CHANNELS 3 Yrotation Xrotation Zrotation
    JOINT LeftToe
    {
     OFFSET 0.000000 -4.693300 10.419700
     CHANNELS 3 Yrotation Xrotation Zrotation
     End Site
     {
      OFFSET 0.000000 -1.379900 5.669300
     }
    }
   }
  }
 }
}
MOTION
Frames: 9
Frame Time: 0.008333
-8.096848 45.809373 29.006995 157.785332 -23.553489 1.432214 -0.608027 9.676846 2.626159 -0.126516 0.673449 0.170357 -0.074644 1.046752 0.344187 -0.440222 9.069803 2.955990 4.527700 19.838895 -0.247832 4.943531 -4.588876 -1.292357 -1.714145 0.684802 -9.976795 -8.023417 -6.862240 -25.949325 26.226974 -65.172240 0.091104 -7.133092 -6.471759 -11.092788 -9.722639 -0.878694 -3.828476 12.552668 -20.052768 15.619096 -15.665305 -17.244853 8.981259 1.922606 -2.940475 13.065446 -7.871624 -65.220106 9.554603 -58.444663 84.009638 -59.704551 -8.890089 -2.694921 -2.001747 0.116675 -0.509430 0.201921 -3.634648 -61.967347 22.532445 60.750611 76.868959 59.640006 -11.999165 -0.600860 -1.364389 0.323389 0.703633 0.087993
-8.099627 45.809188 28.999800 157.775701 -23.506408 1.380113 -0.669862 9.702113 2.639763 -0.126137 0.678346 0.174030 -0.081241 1.055510 0.344679 -0.494292 9.107784 2.943259 4.779521 19.749946 -0.187733 5.172635 -4.685957 -1.297253 -1.951480 0.790321 -10.020988 -8.909392 -6.546935 -25.704309 25.114029 -65.347904 0.632808 -7.214875 -6.467994 -11.412226 -9.505960 -0.681791 -3.766556 13.634028 -19.712634 15.347071 -14.035947 -15.963190 8.720117 2.021946 -3.087002 13.084707 -7.890689 -65.264820 9.634034 -58.587639 83.991923 -59.838420 -8.889624 -2.674447 -1.999957 0.166138 -0.524757 0.197229 -3.668980 -62.032775 22.607439 60.817821 76.875791 59.733910 -12.000839 -0.616938 -1.335283 0.319165 0.700706 0.078946
-8.105105 45.808768 28.992715 157.746116 -23.448226 1.355540 -0.711295 9.713921 2.637893 -0.128800 0.689652 0.178875 -0.087040 1.064769 0.345815 -0.540828 9.146997 2.936205 5.015001 19.656847 -0.141948 5.419059 -4.778457 -1.302922 -2.175279 0.902990 -10.066386 -9.781839 -6.235076 -25.426403 24.069242 -65.519851 1.076514 -7.277350 -6.448399 -11.705573 -9.286829 -0.484096 -3.696319 14.611401 -19.356911 15.111814 -12.322476 -14.721958 8.398401 2.132503 -3.169127 13.026481 -7.846576 -65.322558 9.675528 -58.668789 83.970180 -59.939557 -8.877448 -2.649534 -1.941167 0.138311 -0.532055 0.173130 -3.644956 -62.105603 22.639895 60.875742 76.880096 59.815628 -12.010660 -0.637330 -1.297344 0.327216 0.694994 0.072190
-8.107392 45.810603 28.981615 157.702804 -23.420640 1.331670 -0.794354 9.823040 2.623843 -0.073666 0.642097 0.197460 -0.092216 1.074397 0.347385 -0.581484 9.186832 2.932855 5.254659 19.565247 -0.100483 5.671855 -4.868292 -1.314245 -2.381115 1.019243 -10.110680 -10.644258 -5.924149 -25.118509 23.109497 -65.686642 1.408064 -7.315612 -6.415557 -11.985277 -9.065047 -0.294304 -3.623667 15.493953 -18.971777 14.921964 -10.571250 -13.521209 8.042839 2.242420 -3.194921 12.917634 -7.794329 -65.347791 9.707202 -58.777160 83.950704 -60.021302 -8.947456 -2.640677 -1.941301 0.145190 -0.539617 0.167088 -3.579083 -62.151573 22.658290 60.959720 76.889885 59.932900 -12.032814 -0.671315 -1.261899 0.353728 0.682187 0.092753
-8.113145 45.812146 28.970331 157.664643 -23.384494 1.329408 -0.844766 9.889178 2.612291 -0.057138 0.628728 0.202865 -0.097089 1.084295 0.349387 -0.618420 9.226977 2.932783 5.498420 19.477282 -0.063875 5.931115 -4.953089 -1.331753 -2.573706 1.134703 -10.153812 -11.490836 -5.609247 -24.781934 22.275546 -65.850974 1.588379 -7.341030 -6.368484 -12.256031 -8.846786 -0.123313 -3.556201 16.293066 -18.538398 14.787820 -8.830040 -12.366651 7.675117 2.350348 -3.186049 12.778187 -7.729380 -65.383517 9.706502 -58.850253 83.939372 -60.078417 -9.017790 -2.642154 -1.939505 0.150227 -0.538684 0.159464 -3.566387 -62.188069 22.692117 61.102845 76.885563 60.066204 -12.033003 -0.698131 -1.226666 0.339382 0.678457 0.088371
-8.115690 45.814705 28.957888 157.587730 -23.362297 1.329620 -0.833434 9.952228 2.626601 -0.059775 0.634721 0.204387 -0.101671 1.094347 0.351859 -0.651905 9.267103 2.936508 5.744160 19.392737 -0.032748 6.194746 -5.033215 -1.355689 -2.757410 1.245160 -10.199494 -12.317377 -5.286108 -24.415095 21.603600 -66.015985 1.587810 -7.360060 -6.314451 -12.514180 -8.634681 0.024247 -3.502381 17.005815 -18.044903 14.714266 -7.141592 -11.281416 7.321241 2.448015 -3.152282 12.625197 -7.704904 -65.400411 9.767681 -58.869861 83.943093 -60.112404 -8.999157 -2.664586 -1.913130 0.108098 -0.515393 0.145746 -3.508569 -62.214118 22.725253 61.212484 76.890466 60.178767 -11.992246 -0.687101 -1.171625 0.282361 0.640640 0.058135
-8.119143 45.817455 28.944854 157.563819 -23.342871 1.317097 -0.867859 10.020814 2.638043 -0.062147 0.640662 0.206005 -0.105653 1.104226 0.354632 -0.680303 9.306111 2.942916 5.990217 19.311339 -0.005912 6.460740 -5.109072 -1.384490 -2.939816 1.354283 -10.253443 -13.117681 -4.956857 -24.018774 21.088426 -66.178967 1.420672 -7.372150 -6.263740 -12.762937 -8.435923 0.151547 -3.462748 17.641421 -17.487962 14.692974 -5.560181 -10.295201 7.005811 2.530431 -3.103114 12.476497 -7.648047 -65.417678 9.752304 -58.956589 83.941903 -60.183671 -8.992786 -2.667726 -1.903744 0.122801 -0.516661 0.149323 -3.496241 -62.237615 22.747510 61.326526 76.895570 60.294309 -11.979368 -0.713130 -1.124874 0.266010 0.634807 0.047018
-8.122013 45.819714 28.933483 157.489751 -23.314424 1.317815 -0.848857 10.084567 2.661767 -0.064102 0.646502 0.207758 -0.108959 1.113974 0.357635 -0.702545 9.344086 2.951994 6.233265 19.232914 0.017806 6.725061 -5.181159 -1.416054 -3.130181 1.469246 -10.317794 -13.884729 -4.629281 -23.598603 20.701441 -66.336607 1.119661 -7.373060 -6.223022 -13.013571 -8.263917 0.255908 -3.434791 18.222006 -16.862924 14.716946 -4.142793 -9.420326 6.745028 2.610605 -3.063984 12.335328 -7.575271 -65.442008 9.761039 -58.995266 83.936611 -60.199306 -8.994335 -2.677620 -1.901213 0.180243 -0.507370 0.141338 -3.449940 -62.279014 22.778998 61.525784 76.916381 60.502074 -11.935526 -0.746982 -1.072093 0.233576 0.619850 0.044055
-8.127040 45.820587 28.925180 157.451640 -23.263900 1.308766 -0.854489 10.126444 2.686069 -0.065669 0.652374 0.209804 -0.111672 1.123904 0.360991 -0.718861 9.382117 2.964464 6.469755 19.156915 0.038351 6.983800 -5.250488 -1.449531 -3.331341 1.587816 -10.387644 -14.615504 -4.307930 -23.167694 20.423843 -66.485593 0.708936 -7.367399 -6.203672 -13.268729 -8.121001 0.332602 -3.421528 18.760749 -16.169107 14.780176 -2.927071 -8.654882 6.552233 2.691879 -3.056493 12.190137 -7.558011 -65.488136 9.783638 -58.984670 83.936380 -60.168368 -9.012499 -2.682277 -1.900676 0.189086 -0.503527 0.121302 -3.460298 -62.333826 22.828302 61.629609 76.929123 60.606238 -11.914574 -0.760639 -1.043197 0.222159 0.609075 0.044762
